<svg width="120" height="60" viewBox="0 0 120 60" fill="none" xmlns="http://www.w3.org/2000/svg">
<mask id="path-1-outside-1" maskUnits="userSpaceOnUse" x="9" y="14" width="102" height="32" fill="black">
<rect fill="white" x="9" y="14" width="102" height="32"/>
<path fill-rule="evenodd" clip-rule="evenodd" d="M53.8747 22.9233C52.2697 23.0159 50.8754 23.4981 49.9745 24.181C47.1556 26.3179 44.4707 30.435 42.2624 34.7428C40.8564 37.4857 39.7307 40.127 38.945 42.0702C38.6412 42.8216 38.3882 43.4686 38.1895 43.9768C38.1128 44.1729 38.0443 44.3483 37.984 44.501L32.4463 44.5057V25.7669L26.7372 33.2819L23.9902 36.8977L15.4955 25.7669V42.0726V44.5057H10V17.7418H13.6496H15.4955L23.9902 28.3819L26.7799 24.8717L32.4463 17.7418H34.1623H37.9805V31.1191C40.1833 27.0006 43.122 22.506 46.6674 19.8184C46.9908 19.5732 47.329 19.3487 47.6789 19.1441C48.1057 18.8945 48.55 18.6744 49.0065 18.4825C50.4584 17.8721 52.0334 17.546 53.5595 17.458C55.9651 17.3193 58.534 17.7544 60.6765 18.904C64.2204 20.8054 66.077 23.4599 67.1293 26.0543C68.4471 29.3035 67.9928 31.6399 67.3439 34.9762L67.2799 35.3057C67.2362 35.5311 67.1859 35.7567 67.1287 35.9819C67.2583 36.1094 67.3837 36.2337 67.5047 36.3534L67.5076 36.3563C67.6894 36.5363 67.861 36.7062 68.0206 36.862C68.1641 37.0019 68.2966 37.1292 68.4193 37.2447L73.2679 17.7384L73.2814 17.7418H76.3119H78.7346L83.8904 37.0824L89.6835 28.3819L90.6983 29.906L95.4766 37.0824L100.632 17.7418H103.633H106.095L99.4181 42.0726L98.7504 44.5057H93.9414L89.6835 36.8977L86.7873 42.0726L85.4256 44.5057H80.6166L76.2295 28.5181L72.9807 41.5881L72.3589 44.0894H70.2188C69.3324 44.0894 68.6102 43.9049 67.9543 43.577C67.7011 43.4505 67.4795 43.3121 67.3575 43.2359L67.3375 43.2235C67.1972 43.136 67.134 43.0976 67.0662 43.0617C66.0679 42.5344 65.1532 41.7044 64.4111 40.9878C64.1883 41.223 63.9524 41.4505 63.7032 41.6691C61.6816 43.4423 58.9511 44.4814 55.6202 44.4814C52.5074 44.4814 49.8622 43.8308 47.8953 42.6615C45.9798 41.5228 44.3673 39.6375 44.3673 37.2178C44.3673 35.1557 45.3503 33.2025 47.4761 31.9183C48.0165 31.5918 48.6187 31.3152 49.2824 31.0862C50.9891 30.4972 53.1029 30.2227 55.6203 30.2227C58.2724 30.2227 60.4804 31.0151 62.3083 32.0804C62.6251 30.1545 62.5677 29.373 62.0562 28.1119C61.3975 26.4877 60.3189 24.9247 58.0883 23.7279C56.9984 23.1432 55.4734 22.8312 53.8747 22.9233ZM60.344 37.3181C58.9309 36.3289 57.417 35.6971 55.6203 35.6971C52.5277 35.6971 50.9875 36.1928 50.3069 36.604C49.8736 36.8658 49.8433 37.034 49.8417 37.1703C49.8645 37.2351 50.0024 37.5454 50.6927 37.9558C51.6047 38.4979 53.2173 39.007 55.6202 39.007C57.7637 39.007 59.1714 38.3621 60.0933 37.5535C60.1797 37.4777 60.2633 37.3992 60.344 37.3181Z"/>
<path d="M19.1451 15.3087H13.6496V17.7418H15.4955L19.1451 15.3087Z"/>
<path d="M13.6496 15.3087L10 17.7418H13.6496V15.3087Z"/>
<path d="M41.6301 15.3087H36.0959L34.1623 17.7418H37.9805L41.6301 15.3087Z"/>
<path d="M36.0959 15.3087L32.4463 17.7418H34.1623L36.0959 15.3087Z"/>
<path d="M76.3119 17.7418L76.9176 15.3053L73.2679 17.7384L73.2814 17.7418H76.3119Z"/>
<path d="M103.633 17.7418L104.282 15.3087L100.632 17.7418H103.633Z"/>
<path d="M90.6983 29.906L93.3331 25.9489L89.6835 28.3819L90.6983 29.906Z"/>
<path d="M41.628 42.0679L38.945 42.0702C38.6412 42.8216 38.3882 43.4686 38.1895 43.9768C38.1128 44.1729 38.0443 44.3483 37.984 44.501L41.628 42.0679Z"/>
<path d="M76.0086 41.6563H73.8684C73.5532 41.6563 73.2588 41.6329 72.9807 41.5881L72.3589 44.0894L76.0086 41.6563Z"/>
<path d="M89.0752 42.0726H86.7873L85.4256 44.5057L89.0752 42.0726Z"/>
<path d="M102.4 42.0726H99.4181L98.7504 44.5057L102.4 42.0726Z"/>
<path d="M19.1451 42.0726H15.4955V44.5057L19.1451 42.0726Z"/>
<path d="M27.6399 34.4647L26.7372 33.2819L23.9902 36.8977L27.6399 34.4647Z"/>
<path fill-rule="evenodd" clip-rule="evenodd" d="M53.6242 21.7479C54.525 21.065 55.9194 20.5828 57.5243 20.4903C59.123 20.3981 60.6481 20.7101 61.7379 21.2948C63.9685 22.4916 65.0471 24.0547 65.7058 25.6788C66.2173 26.9399 66.2748 27.7214 65.958 29.6474C64.1301 28.5821 61.922 27.7896 59.2699 27.7896C55.7735 27.7896 53.0557 28.3192 51.1257 29.4852C50.9253 29.6063 50.735 29.7333 50.5548 29.8658C50.0543 30.2337 49.6312 30.6439 49.2824 31.0862C48.4245 32.1742 48.0169 33.4569 48.0169 34.7847C48.0169 37.2044 49.6294 39.0897 51.5449 40.2284C53.5118 41.3977 56.1571 42.0483 59.2699 42.0483C62.6008 42.0483 65.3312 41.0092 67.3528 39.236C67.6021 39.0174 67.8379 38.7899 68.0608 38.5547C68.8029 39.2713 69.7175 40.1014 70.7158 40.6286C70.7836 40.6645 70.8469 40.7029 70.9872 40.7904L71.0071 40.8028C71.1291 40.879 71.3508 41.0174 71.6039 41.1439C72.0266 41.3552 72.4768 41.5069 72.9807 41.5881C73.2588 41.6329 73.5532 41.6563 73.8684 41.6563H76.0086L79.8791 26.085L84.2662 42.0726H86.7873H89.0752L93.3331 34.4647L97.591 42.0726H99.4181H102.4L109.744 15.3087H104.282L103.633 17.7418L99.1263 34.6493L93.3331 25.9489L90.6983 29.906L87.54 34.6493L82.3843 15.3087H76.931L76.9176 15.3053L76.3119 17.7418L72.0689 34.8116C71.9462 34.6961 71.8137 34.5688 71.6703 34.4289C71.5106 34.2731 71.3391 34.1033 71.1572 33.9232L71.1543 33.9203C71.0334 33.8006 70.9079 33.6764 70.7784 33.5488C70.8355 33.3236 70.8858 33.098 70.9296 32.8726L70.9935 32.5432C71.6424 29.2068 72.0968 26.8705 70.7789 23.6212C69.7266 21.0268 67.8701 18.3723 64.3261 16.4709C62.1837 15.3214 59.6147 14.8862 57.2091 15.0249C54.8097 15.1633 52.2895 15.8901 50.3171 17.3853C49.8705 17.7238 49.4336 18.091 49.0065 18.4825C46.043 21.1992 43.5554 25.0863 41.6301 28.686V15.3087L37.9805 17.7418H34.1623L27.6399 25.9489L26.7799 24.8717L23.9902 28.3819L15.4955 17.7418H13.6496V42.0726H15.4955H19.1451V23.3339L26.7372 33.2819L27.6399 34.4647L36.0959 23.3339V42.0726L38.945 42.0702L41.628 42.0679L41.6336 42.0679C41.6939 41.9152 41.7625 41.7398 41.8391 41.5437C42.5516 39.7213 43.9623 36.1132 45.912 32.3097C48.1203 28.0019 50.8052 23.8849 53.6242 21.7479ZM59.2699 33.264C61.0666 33.264 62.5805 33.8958 63.9936 34.8851C63.9129 34.9661 63.8293 35.0446 63.743 35.1204C62.821 35.929 61.4133 36.5739 59.2699 36.5739C56.8669 36.5739 55.2543 36.0648 54.3423 35.5227C53.6521 35.1124 53.5141 34.802 53.4913 34.7372C53.4929 34.6009 53.5233 34.4327 53.9565 34.1709C54.6371 33.7598 56.1773 33.264 59.2699 33.264Z"/>
<path d="M15.4955 17.7418L23.9902 28.3819L26.7799 24.8717L19.1451 15.3087L15.4955 17.7418Z"/>
<path d="M49.2824 31.0862C49.6312 30.6439 50.0543 30.2337 50.5548 29.8658L47.4761 31.9183C48.0165 31.5918 48.6187 31.3152 49.2824 31.0862Z"/>
<path d="M49.0065 18.4825C49.4336 18.091 49.8705 17.7238 50.3171 17.3853L47.6789 19.1441C48.1057 18.8945 48.55 18.6744 49.0065 18.4825Z"/>
</mask>
<path fill-rule="evenodd" clip-rule="evenodd" d="M53.8747 22.9233C52.2697 23.0159 50.8754 23.4981 49.9745 24.181C47.1556 26.3179 44.4707 30.435 42.2624 34.7428C40.8564 37.4857 39.7307 40.127 38.945 42.0702C38.6412 42.8216 38.3882 43.4686 38.1895 43.9768C38.1128 44.1729 38.0443 44.3483 37.984 44.501L32.4463 44.5057V25.7669L26.7372 33.2819L23.9902 36.8977L15.4955 25.7669V42.0726V44.5057H10V17.7418H13.6496H15.4955L23.9902 28.3819L26.7799 24.8717L32.4463 17.7418H34.1623H37.9805V31.1191C40.1833 27.0006 43.122 22.506 46.6674 19.8184C46.9908 19.5732 47.329 19.3487 47.6789 19.1441C48.1057 18.8945 48.55 18.6744 49.0065 18.4825C50.4584 17.8721 52.0334 17.546 53.5595 17.458C55.9651 17.3193 58.534 17.7544 60.6765 18.904C64.2204 20.8054 66.077 23.4599 67.1293 26.0543C68.4471 29.3035 67.9928 31.6399 67.3439 34.9762L67.2799 35.3057C67.2362 35.5311 67.1859 35.7567 67.1287 35.9819C67.2583 36.1094 67.3837 36.2337 67.5047 36.3534L67.5076 36.3563C67.6894 36.5363 67.861 36.7062 68.0206 36.862C68.1641 37.0019 68.2966 37.1292 68.4193 37.2447L73.2679 17.7384L73.2814 17.7418H76.3119H78.7346L83.8904 37.0824L89.6835 28.3819L90.6983 29.906L95.4766 37.0824L100.632 17.7418H103.633H106.095L99.4181 42.0726L98.7504 44.5057H93.9414L89.6835 36.8977L86.7873 42.0726L85.4256 44.5057H80.6166L76.2295 28.5181L72.9807 41.5881L72.3589 44.0894H70.2188C69.3324 44.0894 68.6102 43.9049 67.9543 43.577C67.7011 43.4505 67.4795 43.3121 67.3575 43.2359L67.3375 43.2235C67.1972 43.136 67.134 43.0976 67.0662 43.0617C66.0679 42.5344 65.1532 41.7044 64.4111 40.9878C64.1883 41.223 63.9524 41.4505 63.7032 41.6691C61.6816 43.4423 58.9511 44.4814 55.6202 44.4814C52.5074 44.4814 49.8622 43.8308 47.8953 42.6615C45.9798 41.5228 44.3673 39.6375 44.3673 37.2178C44.3673 35.1557 45.3503 33.2025 47.4761 31.9183C48.0165 31.5918 48.6187 31.3152 49.2824 31.0862C50.9891 30.4972 53.1029 30.2227 55.6203 30.2227C58.2724 30.2227 60.4804 31.0151 62.3083 32.0804C62.6251 30.1545 62.5677 29.373 62.0562 28.1119C61.3975 26.4877 60.3189 24.9247 58.0883 23.7279C56.9984 23.1432 55.4734 22.8312 53.8747 22.9233ZM60.344 37.3181C58.9309 36.3289 57.417 35.6971 55.6203 35.6971C52.5277 35.6971 50.9875 36.1928 50.3069 36.604C49.8736 36.8658 49.8433 37.034 49.8417 37.1703C49.8645 37.2351 50.0024 37.5454 50.6927 37.9558C51.6047 38.4979 53.2173 39.007 55.6202 39.007C57.7637 39.007 59.1714 38.3621 60.0933 37.5535C60.1797 37.4777 60.2633 37.3992 60.344 37.3181Z" fill="#453E93"/>
<path d="M19.1451 15.3087H13.6496V17.7418H15.4955L19.1451 15.3087Z" fill="#453E93"/>
<path d="M13.6496 15.3087L10 17.7418H13.6496V15.3087Z" fill="#453E93"/>
<path d="M41.6301 15.3087H36.0959L34.1623 17.7418H37.9805L41.6301 15.3087Z" fill="#453E93"/>
<path d="M36.0959 15.3087L32.4463 17.7418H34.1623L36.0959 15.3087Z" fill="#453E93"/>
<path d="M76.3119 17.7418L76.9176 15.3053L73.2679 17.7384L73.2814 17.7418H76.3119Z" fill="#453E93"/>
<path d="M103.633 17.7418L104.282 15.3087L100.632 17.7418H103.633Z" fill="#453E93"/>
<path d="M90.6983 29.906L93.3331 25.9489L89.6835 28.3819L90.6983 29.906Z" fill="#453E93"/>
<path d="M41.628 42.0679L38.945 42.0702C38.6412 42.8216 38.3882 43.4686 38.1895 43.9768C38.1128 44.1729 38.0443 44.3483 37.984 44.501L41.628 42.0679Z" fill="#453E93"/>
<path d="M76.0086 41.6563H73.8684C73.5532 41.6563 73.2588 41.6329 72.9807 41.5881L72.3589 44.0894L76.0086 41.6563Z" fill="#453E93"/>
<path d="M89.0752 42.0726H86.7873L85.4256 44.5057L89.0752 42.0726Z" fill="#453E93"/>
<path d="M102.4 42.0726H99.4181L98.7504 44.5057L102.4 42.0726Z" fill="#453E93"/>
<path d="M19.1451 42.0726H15.4955V44.5057L19.1451 42.0726Z" fill="#453E93"/>
<path d="M27.6399 34.4647L26.7372 33.2819L23.9902 36.8977L27.6399 34.4647Z" fill="#453E93"/>
<path fill-rule="evenodd" clip-rule="evenodd" d="M53.6242 21.7479C54.525 21.065 55.9194 20.5828 57.5243 20.4903C59.123 20.3981 60.6481 20.7101 61.7379 21.2948C63.9685 22.4916 65.0471 24.0547 65.7058 25.6788C66.2173 26.9399 66.2748 27.7214 65.958 29.6474C64.1301 28.5821 61.922 27.7896 59.2699 27.7896C55.7735 27.7896 53.0557 28.3192 51.1257 29.4852C50.9253 29.6063 50.735 29.7333 50.5548 29.8658C50.0543 30.2337 49.6312 30.6439 49.2824 31.0862C48.4245 32.1742 48.0169 33.4569 48.0169 34.7847C48.0169 37.2044 49.6294 39.0897 51.5449 40.2284C53.5118 41.3977 56.1571 42.0483 59.2699 42.0483C62.6008 42.0483 65.3312 41.0092 67.3528 39.236C67.6021 39.0174 67.8379 38.7899 68.0608 38.5547C68.8029 39.2713 69.7175 40.1014 70.7158 40.6286C70.7836 40.6645 70.8469 40.7029 70.9872 40.7904L71.0071 40.8028C71.1291 40.879 71.3508 41.0174 71.6039 41.1439C72.0266 41.3552 72.4768 41.5069 72.9807 41.5881C73.2588 41.6329 73.5532 41.6563 73.8684 41.6563H76.0086L79.8791 26.085L84.2662 42.0726H86.7873H89.0752L93.3331 34.4647L97.591 42.0726H99.4181H102.4L109.744 15.3087H104.282L103.633 17.7418L99.1263 34.6493L93.3331 25.9489L90.6983 29.906L87.54 34.6493L82.3843 15.3087H76.931L76.9176 15.3053L76.3119 17.7418L72.0689 34.8116C71.9462 34.6961 71.8137 34.5688 71.6703 34.4289C71.5106 34.2731 71.3391 34.1033 71.1572 33.9232L71.1543 33.9203C71.0334 33.8006 70.9079 33.6764 70.7784 33.5488C70.8355 33.3236 70.8858 33.098 70.9296 32.8726L70.9935 32.5432C71.6424 29.2068 72.0968 26.8705 70.7789 23.6212C69.7266 21.0268 67.8701 18.3723 64.3261 16.4709C62.1837 15.3214 59.6147 14.8862 57.2091 15.0249C54.8097 15.1633 52.2895 15.8901 50.3171 17.3853C49.8705 17.7238 49.4336 18.091 49.0065 18.4825C46.043 21.1992 43.5554 25.0863 41.6301 28.686V15.3087L37.9805 17.7418H34.1623L27.6399 25.9489L26.7799 24.8717L23.9902 28.3819L15.4955 17.7418H13.6496V42.0726H15.4955H19.1451V23.3339L26.7372 33.2819L27.6399 34.4647L36.0959 23.3339V42.0726L38.945 42.0702L41.628 42.0679L41.6336 42.0679C41.6939 41.9152 41.7625 41.7398 41.8391 41.5437C42.5516 39.7213 43.9623 36.1132 45.912 32.3097C48.1203 28.0019 50.8052 23.8849 53.6242 21.7479ZM59.2699 33.264C61.0666 33.264 62.5805 33.8958 63.9936 34.8851C63.9129 34.9661 63.8293 35.0446 63.743 35.1204C62.821 35.929 61.4133 36.5739 59.2699 36.5739C56.8669 36.5739 55.2543 36.0648 54.3423 35.5227C53.6521 35.1124 53.5141 34.802 53.4913 34.7372C53.4929 34.6009 53.5233 34.4327 53.9565 34.1709C54.6371 33.7598 56.1773 33.264 59.2699 33.264Z" fill="#453E93"/>
<path d="M15.4955 17.7418L23.9902 28.3819L26.7799 24.8717L19.1451 15.3087L15.4955 17.7418Z" fill="#453E93"/>
<path d="M49.2824 31.0862C49.6312 30.6439 50.0543 30.2337 50.5548 29.8658L47.4761 31.9183C48.0165 31.5918 48.6187 31.3152 49.2824 31.0862Z" fill="#453E93"/>
<path d="M49.0065 18.4825C49.4336 18.091 49.8705 17.7238 50.3171 17.3853L47.6789 19.1441C48.1057 18.8945 48.55 18.6744 49.0065 18.4825Z" fill="#453E93"/>
<path d="M41.6301 42.0666L41.8136 41.6014C41.6611 41.5413 41.4888 41.5597 41.3525 41.6507L41.6301 42.0666ZM38.1895 43.9768L37.7238 43.7948L38.1895 43.9768ZM37.984 44.501L37.8005 44.9661C38.0573 45.0674 38.3477 44.9414 38.449 44.6846L37.984 44.501ZM23.9902 28.3819L23.5995 28.6939C23.6945 28.8129 23.8385 28.8821 23.9908 28.8819C24.1431 28.8818 24.2869 28.8122 24.3817 28.693L23.9902 28.3819ZM37.9805 17.7418V18.2418C38.0792 18.2418 38.1757 18.2125 38.2578 18.1578L37.9805 17.7418ZM73.2814 17.7418L73.1608 18.227C73.2003 18.2368 73.2408 18.2418 73.2814 18.2418V17.7418ZM76.3119 17.7418V18.2418C76.5416 18.2418 76.7418 18.0853 76.7972 17.8624L76.3119 17.7418ZM103.633 17.7418V18.2418C103.86 18.2418 104.058 18.0895 104.117 17.8706L103.633 17.7418ZM90.6983 29.906L90.2821 30.1831C90.3748 30.3224 90.531 30.406 90.6983 30.406C90.8656 30.406 91.0218 30.3224 91.1145 30.1831L90.6983 29.906ZM41.628 42.0679L41.6284 42.5679C41.7271 42.5679 41.8235 42.5386 41.9056 42.4838L41.628 42.0679ZM38.945 42.0702L38.9445 41.5702C38.7409 41.5704 38.5578 41.694 38.4814 41.8828L38.945 42.0702ZM72.9807 41.5881L73.0602 41.0945C72.8036 41.0531 72.5581 41.2153 72.4954 41.4675L72.9807 41.5881ZM86.7873 42.0726V41.5726C86.6063 41.5726 86.4394 41.6705 86.351 41.8284L86.7873 42.0726ZM99.4181 42.0726V41.5726C99.1929 41.5726 98.9955 41.7231 98.9359 41.9403L99.4181 42.0726ZM15.4955 42.0726V41.5726C15.2193 41.5726 14.9955 41.7965 14.9955 42.0726H15.4955ZM26.7372 33.2819L27.1347 32.9785C27.04 32.8545 26.8927 32.7817 26.7366 32.7819C26.5805 32.7821 26.4335 32.8551 26.3391 32.9794L26.7372 33.2819ZM49.2824 31.0862L49.4455 31.5588C49.5361 31.5276 49.6157 31.471 49.675 31.3958L49.2824 31.0862ZM50.5548 29.8658L50.2774 29.4498C50.2711 29.4541 50.2648 29.4585 50.2586 29.463L50.5548 29.8658ZM49.0065 18.4825L49.2003 18.9434C49.2533 18.9211 49.302 18.8899 49.3444 18.8511L49.0065 18.4825ZM47.6789 19.1441L47.4265 18.7125C47.418 18.7174 47.4097 18.7226 47.4015 18.7281L47.6789 19.1441ZM41.4466 42.5317L41.4501 42.5331L41.817 41.6028L41.8136 41.6014L41.4466 42.5317ZM73.8684 42.1563H76.0086V41.1563H73.8684V42.1563ZM38.449 44.6846C38.5097 44.5309 38.5786 44.3547 38.6552 44.1589L37.7238 43.7948C37.6471 43.991 37.5788 44.1656 37.5189 44.3174L38.449 44.6846ZM37.797 44.9648L37.8005 44.9661L38.1674 44.0359L38.1639 44.0345L37.797 44.9648ZM24.381 28.07L15.8862 17.4298L15.1047 18.0537L23.5995 28.6939L24.381 28.07ZM73.402 17.2565L73.3885 17.2532L73.1473 18.2237L73.1608 18.227L73.402 17.2565ZM15.7728 18.1578L19.4224 15.7247L18.8677 14.8927L15.2181 17.3257L15.7728 18.1578ZM15.4955 17.2418H13.6496V18.2418H15.4955V17.2418ZM13.6496 17.2418H10V18.2418H13.6496V17.2418ZM13.1496 15.3087V17.7418H14.1496V15.3087H13.1496ZM38.2578 18.1578L41.9074 15.7247L41.3527 14.8927L37.7031 17.3257L38.2578 18.1578ZM79.012 18.1578L82.6616 15.7247L82.1069 14.8927L78.4573 17.3257L79.012 18.1578ZM106.372 18.1578L110.022 15.7247L109.467 14.8927L105.817 17.3257L106.372 18.1578ZM34.1623 18.2418H37.9805V17.2418H34.1623V18.2418ZM34.1623 17.2418H32.4463V18.2418H34.1623V17.2418ZM35.7045 14.9976L33.7708 17.4307L34.5537 18.0529L36.4874 15.6198L35.7045 14.9976ZM76.7972 17.8624L77.4028 15.4259L76.4323 15.1847L75.8267 17.6212L76.7972 17.8624ZM73.2814 18.2418H76.3119V17.2418H73.2814V18.2418ZM104.117 17.8706L104.765 15.4375L103.799 15.1799L103.15 17.613L104.117 17.8706ZM100.632 18.2418H103.633V17.2418H100.632V18.2418ZM91.1145 30.1831L93.7493 26.226L92.917 25.6718L90.2821 29.6289L91.1145 30.1831ZM89.2673 28.6591L90.2821 30.1831L91.1145 29.6289L90.0997 28.1048L89.2673 28.6591ZM41.6276 41.5679L38.9445 41.5702L38.9454 42.5702L41.6284 42.5679L41.6276 41.5679ZM38.4814 41.8828C38.1764 42.6371 37.9225 43.2865 37.7238 43.7948L38.6552 44.1589C38.8538 43.6507 39.1059 43.0061 39.4085 42.2576L38.4814 41.8828ZM41.9056 42.4838L41.9077 42.4824L41.3525 41.6507L41.3505 41.6521L41.9056 42.4838ZM73.8684 41.1563C73.5781 41.1563 73.3103 41.1348 73.0602 41.0945L72.9011 42.0818C73.2073 42.1311 73.5284 42.1563 73.8684 42.1563V41.1563ZM72.4954 41.4675L71.8737 43.9687L72.8442 44.21L73.4659 41.7087L72.4954 41.4675ZM89.0752 41.5726H86.7873V42.5726H89.0752V41.5726ZM86.351 41.8284L84.9893 44.2615L85.8619 44.7499L87.2236 42.3168L86.351 41.8284ZM102.4 41.5726H99.4181V42.5726H102.4V41.5726ZM98.9359 41.9403L98.2682 44.3734L99.2326 44.638L99.9003 42.2049L98.9359 41.9403ZM19.1451 41.5726H15.4955V42.5726H19.1451V41.5726ZM14.9955 42.0726V44.5057H15.9955V42.0726H14.9955ZM28.0373 34.1613L27.1347 32.9785L26.3397 33.5852L27.2424 34.768L28.0373 34.1613ZM26.3391 32.9794L23.5921 36.5953L24.3884 37.2002L27.1353 33.5843L26.3391 32.9794ZM26.3885 24.5606L23.5988 28.0709L24.3817 28.693L27.1714 25.1828L26.3885 24.5606ZM49.675 31.3958C49.9949 30.9901 50.3852 30.6111 50.8509 30.2687L50.2586 29.463C49.7234 29.8564 49.2675 30.2976 48.8898 30.7766L49.675 31.3958ZM47.7346 32.3463C48.2413 32.0402 48.8109 31.7778 49.4455 31.5588L49.1193 30.6135C48.4265 30.8526 47.7917 31.1435 47.2175 31.4903L47.7346 32.3463ZM50.8321 30.2819L51.403 29.9012L50.8484 29.0692L50.2774 29.4498L50.8321 30.2819ZM49.3444 18.8511C49.7611 18.4691 50.1861 18.112 50.6191 17.7838L50.015 16.9869C49.5549 17.3356 49.1061 17.7129 48.6686 18.1139L49.3444 18.8511ZM47.9313 19.5757C48.3381 19.3378 48.7628 19.1274 49.2003 18.9434L48.8127 18.0216C48.3372 18.2215 47.8732 18.4512 47.4265 18.7125L47.9313 19.5757ZM46.9448 20.2344L47.9562 19.5601L47.4015 18.7281L46.3901 19.4024L46.9448 20.2344ZM53.6242 21.7479L53.0201 20.951V20.951L53.6242 21.7479ZM57.5243 20.4903L57.4667 19.4919V19.4919L57.5243 20.4903ZM45.912 32.3097L45.0222 31.8536H45.0221L45.912 32.3097ZM41.8391 41.5437L40.9078 41.1796L40.9078 41.1796L41.8391 41.5437ZM41.6336 42.0679L41.6344 43.0679C42.0447 43.0676 42.4131 42.8167 42.5637 42.4351L41.6336 42.0679ZM36.0959 42.0726H35.0959C35.0959 42.338 35.2014 42.5925 35.3891 42.78C35.5768 42.9676 35.8314 43.0728 36.0968 43.0726L36.0959 42.0726ZM36.0959 23.3339H37.0959C37.0959 22.9046 36.8219 22.5232 36.4151 22.3861C36.0082 22.2491 35.5593 22.3871 35.2996 22.7289L36.0959 23.3339ZM27.6399 34.4647L28.1946 35.2967C28.2872 35.235 28.3688 35.1582 28.4361 35.0696L27.6399 34.4647ZM19.1451 23.3339L19.94 22.7272C19.6798 22.3862 19.2312 22.2492 18.8249 22.3865C18.4186 22.5238 18.1451 22.905 18.1451 23.3339H19.1451ZM19.1451 42.0726L19.6998 42.9047C19.978 42.7192 20.1451 42.407 20.1451 42.0726H19.1451ZM13.6496 42.0726H12.6496C12.6496 42.6249 13.0973 43.0726 13.6496 43.0726V42.0726ZM13.6496 15.3087V14.3087C13.4522 14.3087 13.2592 14.3671 13.0949 14.4766L13.6496 15.3087ZM19.1451 15.3087L19.9266 14.6848C19.7368 14.4471 19.4492 14.3087 19.1451 14.3087V15.3087ZM27.6399 25.9489L26.8584 26.5728C27.0484 26.8108 27.3365 26.9492 27.641 26.9489C27.9455 26.9485 28.2333 26.8094 28.4227 26.571L27.6399 25.9489ZM36.0959 15.3087V14.3087C35.8985 14.3087 35.7055 14.3671 35.5412 14.4766L36.0959 15.3087ZM41.6301 15.3087H42.6301C42.6301 14.7564 42.1824 14.3087 41.6301 14.3087V15.3087ZM41.6301 28.686H40.6301C40.6301 29.1446 40.9421 29.5445 41.387 29.656C41.8319 29.7675 42.2956 29.5621 42.5119 29.1576L41.6301 28.686ZM50.3171 17.3853L50.8717 18.2174C50.8886 18.2061 50.905 18.1944 50.9212 18.1822L50.3171 17.3853ZM57.2091 15.0249L57.2667 16.0232L57.2091 15.0249ZM64.3261 16.4709L64.7989 15.5897L64.7989 15.5897L64.3261 16.4709ZM70.7789 23.6212L71.7056 23.2454V23.2454L70.7789 23.6212ZM70.9935 32.5432L70.0119 32.3522L70.0119 32.3524L70.9935 32.5432ZM70.9296 32.8726L69.9479 32.6819L69.9478 32.6822L70.9296 32.8726ZM70.7784 33.5488L69.8091 33.3028C69.7217 33.6471 69.8235 34.0119 70.0766 34.2612L70.7784 33.5488ZM71.1543 33.9203L71.859 33.2108L71.8579 33.2097L71.1543 33.9203ZM71.1572 33.9232L70.4525 34.6327L70.4536 34.6338L71.1572 33.9232ZM71.6703 34.4289L72.3687 33.7132L71.6703 34.4289ZM72.0689 34.8116L71.3833 35.5396C71.6418 35.7831 72.0101 35.8712 72.3509 35.7711C72.6916 35.6709 72.9537 35.3975 73.0394 35.0529L72.0689 34.8116ZM76.9176 15.3053L77.1588 14.3349C76.8858 14.267 76.5969 14.3173 76.3629 14.4733L76.9176 15.3053ZM76.931 15.3087L76.6898 16.2792C76.7687 16.2988 76.8497 16.3087 76.931 16.3087V15.3087ZM82.3843 15.3087L83.3505 15.0511C83.2338 14.6133 82.8373 14.3087 82.3843 14.3087V15.3087ZM87.54 34.6493L86.5737 34.9069C86.675 35.2868 86.9894 35.572 87.3773 35.636C87.7651 35.7 88.1545 35.5308 88.3724 35.2036L87.54 34.6493ZM93.3331 25.9489L94.1655 25.3946C94.0185 25.1738 93.7897 25.0204 93.5295 24.9683C93.2694 24.9162 92.9992 24.9696 92.7784 25.1168L93.3331 25.9489ZM99.1263 34.6493L98.2939 35.2036C98.5118 35.5308 98.9011 35.7 99.289 35.636C99.6769 35.572 99.9913 35.2868 100.093 34.9069L99.1263 34.6493ZM104.282 15.3087V14.3087C104.085 14.3087 103.892 14.3671 103.727 14.4766L104.282 15.3087ZM109.744 15.3087L110.709 15.5733C110.791 15.2725 110.729 14.9504 110.539 14.7023C110.35 14.4543 110.056 14.3087 109.744 14.3087V15.3087ZM102.4 42.0726L102.955 42.9047C103.155 42.771 103.301 42.5695 103.364 42.3372L102.4 42.0726ZM97.591 42.0726L96.7184 42.561C96.8952 42.8769 97.229 43.0726 97.591 43.0726V42.0726ZM93.3331 34.4647L94.2058 33.9763C94.029 33.6603 93.6952 33.4647 93.3331 33.4647C92.9711 33.4647 92.6373 33.6603 92.4605 33.9763L93.3331 34.4647ZM89.0752 42.0726L89.6299 42.9047C89.7616 42.8169 89.8706 42.6991 89.9479 42.561L89.0752 42.0726ZM84.2662 42.0726L83.3019 42.3372C83.4211 42.7716 83.8159 43.0726 84.2662 43.0726V42.0726ZM79.8791 26.085L80.8435 25.8204C80.7231 25.3817 80.3218 25.0796 79.867 25.0851C79.4122 25.0906 79.0184 25.4023 78.9086 25.8438L79.8791 26.085ZM76.0086 41.6563L76.5633 42.4883C76.7706 42.3501 76.9189 42.1394 76.979 41.8975L76.0086 41.6563ZM71.6039 41.1439L71.1568 42.0384L71.1568 42.0384L71.6039 41.1439ZM71.0071 40.8028L71.5367 39.9546L71.5365 39.9545L71.0071 40.8028ZM70.9872 40.7904L71.5166 39.9421L71.5162 39.9418L70.9872 40.7904ZM70.7158 40.6286L70.2488 41.5129L70.2488 41.5129L70.7158 40.6286ZM68.0608 38.5547L68.7554 37.8353C68.5634 37.65 68.3053 37.549 68.0385 37.555C67.7717 37.5609 67.5183 37.6732 67.3348 37.867L68.0608 38.5547ZM67.3528 39.236L68.0122 39.9878L68.0122 39.9878L67.3528 39.236ZM51.5449 40.2284L51.0339 41.088L51.5449 40.2284ZM51.1257 29.4852L50.6086 28.6293L51.1257 29.4852ZM65.958 29.6474L65.4545 30.5113C65.7387 30.677 66.0863 30.6922 66.384 30.5521C66.6816 30.4119 66.8913 30.1343 66.9447 29.8097L65.958 29.6474ZM65.7058 25.6788L66.6325 25.303V25.303L65.7058 25.6788ZM61.7379 21.2948L61.2651 22.176V22.176L61.7379 21.2948ZM63.9936 34.8851L64.7021 35.5908C64.9105 35.3816 65.0158 35.091 64.9897 34.7969C64.9637 34.5027 64.809 34.2352 64.5671 34.0658L63.9936 34.8851ZM53.9565 34.1709L53.4394 33.315L53.9565 34.1709ZM53.4913 34.7372L52.4914 34.7258C52.4901 34.8425 52.5092 34.9585 52.5478 35.0685L53.4913 34.7372ZM54.3423 35.5227L54.8533 34.6631V34.6631L54.3423 35.5227ZM63.743 35.1204L63.0835 34.3686V34.3686L63.743 35.1204ZM49.9745 24.181L49.3704 23.3841L49.9745 24.181ZM53.8747 22.9233L53.8171 21.925L53.8747 22.9233ZM42.2624 34.7428L41.3725 34.2867L42.2624 34.7428ZM37.984 44.501L37.9848 45.501C38.1822 45.5008 38.3751 45.4423 38.5392 45.3327L37.984 44.501ZM32.4463 44.5057H31.4463C31.4463 44.7711 31.5518 45.0255 31.7395 45.2131C31.9272 45.4007 32.1818 45.5059 32.4471 45.5057L32.4463 44.5057ZM32.4463 25.7669H33.4463C33.4463 25.3376 33.1723 24.9562 32.7655 24.8192C32.3586 24.6822 31.9097 24.8202 31.65 25.162L32.4463 25.7669ZM23.9902 36.8977L23.1953 37.5044C23.5153 37.9238 24.106 38.0224 24.5449 37.7298L23.9902 36.8977ZM15.4955 25.7669L16.2904 25.1603C16.0302 24.8193 15.5816 24.6823 15.1753 24.8196C14.769 24.9569 14.4955 25.338 14.4955 25.7669H15.4955ZM15.4955 44.5057V45.5057C15.6929 45.5057 15.8859 45.4473 16.0502 45.3377L15.4955 44.5057ZM10 44.5057H9C9 45.058 9.44772 45.5057 10 45.5057V44.5057ZM10 17.7418L9.4453 16.9097C9.1671 17.0952 9 17.4074 9 17.7418H10ZM32.4463 17.7418L31.8916 16.9097C31.8051 16.9674 31.7281 17.0382 31.6634 17.1196L32.4463 17.7418ZM37.9805 31.1191H36.9805C36.9805 31.5777 37.2925 31.9776 37.7374 32.0891C38.1822 32.2006 38.6459 31.9951 38.8623 31.5907L37.9805 31.1191ZM46.6674 19.8184L46.0633 19.0215L46.0633 19.0215L46.6674 19.8184ZM53.5595 17.458L53.6171 18.4563L53.5595 17.458ZM60.6765 18.904L61.1493 18.0228V18.0228L60.6765 18.904ZM67.1293 26.0543L68.0559 25.6784V25.6784L67.1293 26.0543ZM67.3439 34.9762L66.3623 34.7853L66.3623 34.7855L67.3439 34.9762ZM67.2799 35.3057L66.2983 35.115L66.2982 35.1153L67.2799 35.3057ZM67.1287 35.9819L66.1595 35.7359C66.0721 36.0802 66.1739 36.445 66.427 36.6943L67.1287 35.9819ZM67.5047 36.3534L68.2092 35.6437L68.2082 35.6428L67.5047 36.3534ZM67.5076 36.3563L66.803 37.0659L66.804 37.0669L67.5076 36.3563ZM68.0206 36.862L68.719 36.1463V36.1463L68.0206 36.862ZM68.4193 37.2447L67.7336 37.9727C67.9922 38.2162 68.3605 38.3043 68.7012 38.2041C69.042 38.104 69.3041 37.8306 69.3898 37.4859L68.4193 37.2447ZM73.2679 17.7384L72.7132 16.9064C72.5059 17.0446 72.3576 17.2553 72.2975 17.4972L73.2679 17.7384ZM78.7346 17.7418L79.7009 17.4842C79.5842 17.0464 79.1877 16.7418 78.7346 16.7418V17.7418ZM83.8904 37.0824L82.9241 37.34C83.0254 37.7198 83.3398 38.0051 83.7276 38.0691C84.1155 38.1331 84.5049 37.9639 84.7227 37.6366L83.8904 37.0824ZM89.6835 28.3819L89.1288 27.5499C89.0188 27.6232 88.9244 27.7177 88.8511 27.8277L89.6835 28.3819ZM95.4766 37.0824L94.6443 37.6366C94.8621 37.9639 95.2515 38.1331 95.6394 38.0691C96.0272 38.0051 96.3416 37.7198 96.4429 37.34L95.4766 37.0824ZM100.632 17.7418L100.078 16.9097C99.8752 17.0447 99.7288 17.249 99.6661 17.4842L100.632 17.7418ZM106.095 17.7418L107.059 18.0064C107.142 17.7056 107.079 17.3835 106.89 17.1354C106.701 16.8873 106.407 16.7418 106.095 16.7418V17.7418ZM98.7504 44.5057V45.5057C98.9478 45.5057 99.1409 45.4473 99.3051 45.3377L98.7504 44.5057ZM93.9414 44.5057L93.0688 44.9941C93.2456 45.31 93.5794 45.5057 93.9414 45.5057V44.5057ZM89.6835 36.8977L90.5561 36.4094C90.3793 36.0934 90.0456 35.8977 89.6835 35.8977C89.3215 35.8977 88.9877 36.0934 88.8109 36.4094L89.6835 36.8977ZM85.4256 44.5057V45.5057C85.623 45.5057 85.816 45.4473 85.9803 45.3377L85.4256 44.5057ZM80.6166 44.5057L79.6522 44.7703C79.7714 45.2046 80.1662 45.5057 80.6166 45.5057V44.5057ZM76.2295 28.5181L77.1938 28.2535C77.0735 27.8148 76.6722 27.5127 76.2174 27.5182C75.7626 27.5237 75.3687 27.8354 75.259 28.2769L76.2295 28.5181ZM72.3589 44.0894V45.0894C72.5564 45.0894 72.7494 45.0309 72.9137 44.9214L72.3589 44.0894ZM67.9543 43.577L67.5072 44.4715L67.5072 44.4715L67.9543 43.577ZM67.3575 43.2359L67.8871 42.3877L67.8869 42.3876L67.3575 43.2359ZM67.3375 43.2235L67.867 42.3751L67.8666 42.3749L67.3375 43.2235ZM67.0662 43.0617L66.5991 43.946L66.5992 43.946L67.0662 43.0617ZM64.4111 40.9878L65.1057 40.2684C64.9138 40.083 64.6557 39.9821 64.3889 39.988C64.1221 39.994 63.8687 40.1063 63.6852 40.3L64.4111 40.9878ZM63.7032 41.6691L64.3626 42.4209V42.4209L63.7032 41.6691ZM47.8953 42.6615L47.3843 43.5211L47.8953 42.6615ZM47.4761 31.9183L47.9932 32.7742C48.0059 32.7666 48.0184 32.7586 48.0308 32.7504L47.4761 31.9183ZM62.3083 32.0804L61.8048 32.9444C62.0891 33.1101 62.4367 33.1253 62.7343 32.9852C63.032 32.845 63.2417 32.5674 63.2951 32.2427L62.3083 32.0804ZM62.0562 28.1119L62.9829 27.7361L62.9829 27.7361L62.0562 28.1119ZM58.0883 23.7279L57.6155 24.6091L58.0883 23.7279ZM60.344 37.3181L61.0525 38.0238C61.2609 37.8146 61.3662 37.5241 61.3401 37.2299C61.3141 36.9358 61.1594 36.6683 60.9175 36.4989L60.344 37.3181ZM50.3069 36.604L49.7898 35.7481H49.7898L50.3069 36.604ZM49.8417 37.1703L48.8418 37.1589C48.8404 37.2756 48.8595 37.3915 48.8982 37.5016L49.8417 37.1703ZM50.6927 37.9558L51.2037 37.0962L51.2037 37.0962L50.6927 37.9558ZM60.0933 37.5535L59.4339 36.8017V36.8017L60.0933 37.5535ZM76.3119 17.7418V16.7418C75.8526 16.7418 75.4523 17.0547 75.3415 17.5005L76.3119 17.7418ZM103.633 17.7418V16.7418C103.18 16.7418 102.784 17.0464 102.667 17.4842L103.633 17.7418ZM90.6983 29.906L91.5307 29.3518C91.3452 29.0733 91.0329 28.906 90.6983 28.906C90.3637 28.906 90.0514 29.0733 89.8659 29.3518L90.6983 29.906ZM41.628 42.0679L41.6272 41.0679C41.4298 41.0681 41.2369 41.1267 41.0727 41.2363L41.628 42.0679ZM38.945 42.0702L38.9458 43.0702C39.3531 43.0699 39.7194 42.8226 39.8721 42.4451L38.945 42.0702ZM72.9807 41.5881L72.8216 42.5754C73.3348 42.6581 73.8258 42.3338 73.9511 41.8294L72.9807 41.5881ZM86.7873 42.0726V43.0726C87.1494 43.0726 87.4831 42.8769 87.66 42.561L86.7873 42.0726ZM99.4181 42.0726V43.0726C99.8684 43.0726 100.263 42.7716 100.382 42.3372L99.4181 42.0726ZM15.4955 42.0726V43.0726C16.0478 43.0726 16.4955 42.6249 16.4955 42.0726H15.4955ZM26.7372 33.2819L25.9423 33.8886C26.1317 34.1367 26.4261 34.2822 26.7383 34.2819C27.0505 34.2815 27.3446 34.1354 27.5335 33.8868L26.7372 33.2819ZM26.7799 24.8717L25.9984 25.4956L26.7799 24.8717ZM49.2824 31.0862L48.9562 30.1409C48.7751 30.2034 48.6158 30.3166 48.4972 30.467L49.2824 31.0862ZM50.5548 29.8658L51.1095 30.6979C51.1222 30.6894 51.1348 30.6806 51.1471 30.6715L50.5548 29.8658ZM49.0065 18.4825L48.6189 17.5607C48.513 17.6052 48.4155 17.6677 48.3308 17.7454L49.0065 18.4825ZM47.6789 19.1441L48.1837 20.0073C48.2006 19.9974 48.2173 19.987 48.2336 19.9761L47.6789 19.1441ZM54.2283 22.5448C54.9338 22.01 56.1226 21.5728 57.5819 21.4886L57.4667 19.4919C55.7161 19.5929 54.1163 20.12 53.0201 20.951L54.2283 22.5448ZM46.8019 32.7659C49.0017 28.4746 51.6019 24.5358 54.2283 22.5448L53.0201 20.951C50.0085 23.2339 47.2389 27.5291 45.0222 31.8536L46.8019 32.7659ZM42.7705 41.9079C43.4821 40.0877 44.8772 36.5206 46.8019 32.7659L45.0221 31.8536C43.0475 35.7058 41.6212 39.355 40.9078 41.1796L42.7705 41.9079ZM42.5637 42.4351C42.6248 42.2805 42.694 42.1035 42.7705 41.9079L40.9078 41.1796C40.8309 41.3761 40.763 41.5498 40.7034 41.7008L42.5637 42.4351ZM35.0959 23.3339V42.0726H37.0959V23.3339H35.0959ZM28.4361 35.0696L36.8922 23.9388L35.2996 22.7289L26.8436 33.8597L28.4361 35.0696ZM20.1451 42.0726V23.3339H18.1451V42.0726H20.1451ZM19.1451 14.3087H13.6496V16.3087H19.1451V14.3087ZM41.6301 14.3087H36.0959V16.3087H41.6301V14.3087ZM42.6301 28.686V15.3087H40.6301V28.686H42.6301ZM57.1516 14.0266C54.6074 14.1733 51.8813 14.9446 49.7129 16.5884L50.9212 18.1822C52.6977 16.8355 55.0121 16.1533 57.2667 16.0232L57.1516 14.0266ZM64.7989 15.5897C62.464 14.3369 59.7043 13.8794 57.1516 14.0266L57.2667 16.0232C59.5251 15.893 61.9033 16.3058 63.8534 17.352L64.7989 15.5897ZM71.7056 23.2454C70.5815 20.4741 68.583 17.62 64.7989 15.5897L63.8534 17.352C67.1571 19.1246 68.8717 21.5796 69.8522 23.9971L71.7056 23.2454ZM71.9752 32.7341C72.6236 29.4 73.1456 26.7957 71.7056 23.2454L69.8522 23.9971C71.048 26.9452 70.6612 29.0136 70.0119 32.3522L71.9752 32.7341ZM71.9112 33.0633L71.9752 32.7339L70.0119 32.3524L69.9479 32.6819L71.9112 33.0633ZM71.7476 33.7947C71.8095 33.551 71.864 33.3069 71.9113 33.0629L69.9478 32.6822C69.9077 32.8892 69.8615 33.0962 69.8091 33.3028L71.7476 33.7947ZM71.8579 33.2097C71.7371 33.0901 71.6107 32.965 71.4801 32.8363L70.0766 34.2612C70.2051 34.3878 70.3297 34.5111 70.4507 34.6309L71.8579 33.2097ZM71.8619 33.2137L71.859 33.2108L70.4496 34.6298L70.4525 34.6327L71.8619 33.2137ZM72.3687 33.7132C72.2121 33.5604 72.0432 33.3932 71.8607 33.2126L70.4536 34.6338C70.6349 34.8133 70.8091 34.9858 70.9719 35.1446L72.3687 33.7132ZM72.7546 34.0837C72.6368 33.9728 72.5086 33.8497 72.3687 33.7132L70.9718 35.1446C71.1188 35.288 71.2556 35.4194 71.3833 35.5396L72.7546 34.0837ZM77.1722 14.3382L77.1588 14.3349L76.6764 16.2758L76.6898 16.2792L77.1722 14.3382ZM82.3843 14.3087H76.931V16.3087H82.3843V14.3087ZM88.5063 34.3918L83.3505 15.0511L81.418 15.5663L86.5737 34.9069L88.5063 34.3918ZM99.9586 34.0951L94.1655 25.3946L92.5008 26.5031L98.2939 35.2036L99.9586 34.0951ZM109.744 14.3087H104.282V16.3087H109.744V14.3087ZM103.364 42.3372L110.709 15.5733L108.78 15.0441L101.436 41.808L103.364 42.3372ZM92.4605 34.953L96.7184 42.561L98.4637 41.5842L94.2058 33.9763L92.4605 34.953ZM89.9479 42.561L94.2058 34.953L92.4605 33.9763L88.2026 41.5842L89.9479 42.561ZM78.9147 26.3496L83.3019 42.3372L85.2306 41.808L80.8435 25.8204L78.9147 26.3496ZM70.4775 41.6511C70.6002 41.7277 70.8572 41.8887 71.1568 42.0384L72.051 40.2494C71.8443 40.1462 71.658 40.0303 71.5367 39.9546L70.4775 41.6511ZM70.4577 41.6388L70.4777 41.6512L71.5365 39.9545L71.5166 39.9421L70.4577 41.6388ZM70.2488 41.5129C70.2799 41.5293 70.3133 41.5487 70.4581 41.639L71.5162 39.9418C71.3804 39.8572 71.2874 39.7996 71.1828 39.7444L70.2488 41.5129ZM67.3661 39.2741C68.111 39.9933 69.1137 40.9134 70.2488 41.5129L71.1829 39.7444C70.3213 39.2893 69.4947 38.5492 68.7554 37.8353L67.3661 39.2741ZM68.0122 39.9878C68.2849 39.7486 68.543 39.4997 68.7867 39.2424L67.3348 37.867C67.1329 38.08 66.9192 38.2861 66.6934 38.4842L68.0122 39.9878ZM59.2699 43.0483C62.8174 43.0483 65.7895 41.9373 68.0122 39.9878L66.6934 38.4842C64.8729 40.081 62.3841 41.0483 59.2699 41.0483V43.0483ZM51.0339 41.088C53.1936 42.3719 56.0276 43.0483 59.2699 43.0483V41.0483C56.2865 41.0483 53.83 40.4235 52.0559 39.3688L51.0339 41.088ZM47.0169 34.7847C47.0169 37.6897 48.9499 39.8491 51.0339 41.088L52.0559 39.3688C50.3089 38.3303 49.0169 36.7191 49.0169 34.7847H47.0169ZM59.2699 26.7896C55.6996 26.7896 52.7668 27.3255 50.6086 28.6293L51.6428 30.3412C53.3447 29.313 55.8474 28.7896 59.2699 28.7896V26.7896ZM66.4615 28.7834C64.5129 27.6477 62.1328 26.7896 59.2699 26.7896V28.7896C61.7113 28.7896 63.7473 29.5164 65.4545 30.5113L66.4615 28.7834ZM64.7792 26.0547C65.0096 26.6229 65.1151 27.0253 65.1446 27.4788C65.1757 27.9555 65.1265 28.5412 64.9712 29.4851L66.9447 29.8097C67.1062 28.8276 67.1867 28.0596 67.1404 27.3488C67.0926 26.6148 66.9136 25.9959 66.6325 25.303L64.7792 26.0547ZM61.2651 22.176C63.2563 23.2443 64.1925 24.6083 64.7792 26.0547L66.6325 25.303C65.9016 23.501 64.6808 21.7389 62.2107 20.4136L61.2651 22.176ZM57.5819 21.4886C59.0328 21.4049 60.3673 21.6943 61.2651 22.176L62.2107 20.4136C60.9288 19.7259 59.2131 19.3912 57.4667 19.4919L57.5819 21.4886ZM59.2699 34.264C60.8076 34.264 62.1249 34.7975 63.4202 35.7043L64.5671 34.0658C63.0362 32.9941 61.3256 32.264 59.2699 32.264V34.264ZM54.4736 35.0269C54.9259 34.7536 56.2508 34.264 59.2699 34.264V32.264C56.1037 32.264 54.3484 32.7659 53.4394 33.315L54.4736 35.0269ZM54.4913 34.7486C54.4912 34.7495 54.4911 34.8022 54.4734 34.8724C54.4545 34.9477 54.4237 35.012 54.391 35.0604C54.3615 35.1041 54.3408 35.1196 54.3522 35.1098C54.3641 35.0996 54.3997 35.0716 54.4736 35.0269L53.4394 33.315C53.1657 33.4804 52.9109 33.6782 52.7331 33.9418C52.5226 34.2538 52.4934 34.5468 52.4914 34.7258L54.4913 34.7486ZM54.8533 34.6631C54.3022 34.3355 54.3588 34.1892 54.4349 34.4059L52.5478 35.0685C52.6694 35.4149 53.0019 35.8892 53.8313 36.3823L54.8533 34.6631ZM59.2699 35.5739C56.9969 35.5739 55.5728 35.0908 54.8533 34.6631L53.8313 36.3823C54.9358 37.0389 56.737 37.5739 59.2699 37.5739V35.5739ZM63.0835 34.3686C62.3621 35.0014 61.1959 35.5739 59.2699 35.5739V37.5739C61.6308 37.5739 63.2799 36.8567 64.4024 35.8722L63.0835 34.3686ZM63.2851 34.1793C63.2201 34.2447 63.1529 34.3078 63.0835 34.3686L64.4024 35.8722C64.5058 35.7814 64.6057 35.6876 64.7021 35.5908L63.2851 34.1793ZM76.979 41.8975L80.8496 26.3262L78.9086 25.8438L75.0381 41.415L76.979 41.8975ZM50.5786 24.9779C51.2841 24.4431 52.473 24.0058 53.9322 23.9217L53.8171 21.925C52.0665 22.026 50.4667 22.5531 49.3704 23.3841L50.5786 24.9779ZM43.1523 35.199C45.3521 30.9077 47.9523 26.9688 50.5786 24.9779L49.3704 23.3841C46.3589 25.667 43.5893 29.9622 41.3725 34.2867L43.1523 35.199ZM32.4471 45.5057L37.9848 45.501L37.9831 43.501L32.4455 43.5057L32.4471 45.5057ZM31.4463 25.7669V44.5057H33.4463V25.7669H31.4463ZM14.7005 26.3736L23.1953 37.5044L24.7852 36.2911L16.2904 25.1603L14.7005 26.3736ZM10 45.5057H15.4955V43.5057H10V45.5057ZM9 17.7418V44.5057H11V17.7418H9ZM38.9805 31.1191V17.7418H36.9805V31.1191H38.9805ZM46.0633 19.0215C42.3375 21.8459 39.3154 26.5029 37.0987 30.6474L38.8623 31.5907C41.0511 27.4984 43.9065 23.1662 47.2715 20.6153L46.0633 19.0215ZM61.1493 18.0228C58.8144 16.77 56.0547 16.3124 53.5019 16.4596L53.6171 18.4563C55.8755 18.3261 58.2537 18.7389 60.2037 19.7851L61.1493 18.0228ZM68.0559 25.6784C66.9319 22.9072 64.9334 20.0531 61.1493 18.0228L60.2037 19.7851C63.5075 21.5577 65.222 24.0127 66.2026 26.4302L68.0559 25.6784ZM68.3255 35.1671C68.9739 31.8331 69.4959 29.2288 68.0559 25.6784L66.2026 26.4302C67.3983 29.3783 67.0116 31.4467 66.3623 34.7853L68.3255 35.1671ZM68.2616 35.4964L68.3256 35.1669L66.3623 34.7855L66.2983 35.115L68.2616 35.4964ZM68.098 36.2278C68.1599 35.9841 68.2144 35.7399 68.2616 35.496L66.2982 35.1153C66.2581 35.3223 66.2119 35.5293 66.1595 35.7359L68.098 36.2278ZM68.2082 35.6428C68.0874 35.5232 67.9611 35.3981 67.8305 35.2694L66.427 36.6943C66.5555 36.8208 66.68 36.9442 66.8011 37.064L68.2082 35.6428ZM68.2121 35.6466L68.2092 35.6437L66.8001 37.0631L66.803 37.0659L68.2121 35.6466ZM68.719 36.1463C68.5625 35.9935 68.3936 35.8263 68.2111 35.6456L66.804 37.0669C66.9853 37.2464 67.1595 37.4189 67.3222 37.5777L68.719 36.1463ZM69.1049 36.5168C68.9872 36.4059 68.8589 36.2828 68.719 36.1463L67.3222 37.5777C67.4692 37.7211 67.606 37.8525 67.7336 37.9727L69.1049 36.5168ZM72.2975 17.4972L67.4488 37.0035L69.3898 37.4859L74.2384 17.9796L72.2975 17.4972ZM84.8566 36.8248L79.7009 17.4842L77.7684 17.9993L82.9241 37.34L84.8566 36.8248ZM88.8511 27.8277L83.058 36.5282L84.7227 37.6366L90.5159 28.9362L88.8511 27.8277ZM99.6661 17.4842L94.5104 36.8248L96.4429 37.34L101.599 17.9993L99.6661 17.4842ZM93.9414 45.5057H98.7504V43.5057H93.9414V45.5057ZM88.8109 37.3861L93.0688 44.9941L94.814 44.0173L90.5561 36.4094L88.8109 37.3861ZM80.6166 45.5057H85.4256V43.5057H80.6166V45.5057ZM75.2651 28.7827L79.6522 44.7703L81.5809 44.2411L77.1938 28.2535L75.2651 28.7827ZM70.2188 45.0894H72.3589V43.0894H70.2188V45.0894ZM67.5072 44.4715C68.3051 44.8703 69.1807 45.0894 70.2188 45.0894V43.0894C69.4841 43.0894 68.9154 42.9394 68.4013 42.6825L67.5072 44.4715ZM66.8278 44.0841C66.9506 44.1608 67.2076 44.3218 67.5072 44.4715L68.4013 42.6825C68.1947 42.5792 68.0084 42.4634 67.8871 42.3877L66.8278 44.0841ZM66.8081 44.0718L66.828 44.0843L67.8869 42.3876L67.867 42.3751L66.8081 44.0718ZM66.5992 43.946C66.6303 43.9624 66.6637 43.9818 66.8085 44.0721L67.8666 42.3749C67.7308 42.2902 67.6378 42.2327 67.5332 42.1775L66.5992 43.946ZM63.7165 41.7072C64.4614 42.4264 65.4641 43.3464 66.5991 43.946L67.5332 42.1775C66.6717 41.7224 65.8451 40.9823 65.1057 40.2684L63.7165 41.7072ZM64.3626 42.4209C64.6353 42.1817 64.8933 41.9328 65.1371 41.6755L63.6852 40.3C63.4833 40.5131 63.2696 40.7192 63.0438 40.9173L64.3626 42.4209ZM55.6202 45.4814C59.1677 45.4814 62.1399 44.3704 64.3626 42.4209L63.0438 40.9173C61.2232 42.5141 58.7345 43.4814 55.6202 43.4814V45.4814ZM47.3843 43.5211C49.544 44.805 52.3779 45.4814 55.6202 45.4814V43.4814C52.6369 43.4814 50.1804 42.8566 48.4063 41.8019L47.3843 43.5211ZM43.3673 37.2178C43.3673 40.1228 45.3002 42.2822 47.3843 43.5211L48.4063 41.8019C46.6593 40.7634 45.3673 39.1521 45.3673 37.2178H43.3673ZM46.959 31.0624C44.5335 32.5277 43.3673 34.8055 43.3673 37.2178H45.3673C45.3673 35.5059 46.1672 33.8774 47.9932 32.7742L46.959 31.0624ZM62.8119 31.2165C60.8632 30.0808 58.4831 29.2227 55.6203 29.2227V31.2227C58.0617 31.2227 60.0976 31.9495 61.8048 32.9444L62.8119 31.2165ZM61.1295 28.4878C61.36 29.0559 61.4655 29.4584 61.495 29.9119C61.5261 30.3886 61.4769 30.9743 61.3216 31.9181L63.2951 32.2427C63.4566 31.2607 63.5371 30.4926 63.4908 29.7818C63.4429 29.0479 63.264 28.429 62.9829 27.7361L61.1295 28.4878ZM57.6155 24.6091C59.6067 25.6774 60.5429 27.0414 61.1295 28.4878L62.9829 27.7361C62.252 25.9341 61.0311 24.172 58.5611 22.8467L57.6155 24.6091ZM53.9322 23.9217C55.3832 23.838 56.7177 24.1274 57.6155 24.6091L58.5611 22.8467C57.2792 22.159 55.5635 21.8243 53.8171 21.925L53.9322 23.9217ZM55.6203 36.6971C57.158 36.6971 58.4752 37.2306 59.7705 38.1374L60.9175 36.4989C59.3866 35.4272 57.676 34.6971 55.6203 34.6971V36.6971ZM50.824 37.4599C51.2763 37.1867 52.6012 36.6971 55.6203 36.6971V34.6971C52.4541 34.6971 50.6987 35.199 49.7898 35.7481L50.824 37.4599ZM50.8416 37.1817C50.8416 37.1826 50.8415 37.2353 50.8238 37.3055C50.8048 37.3808 50.7741 37.4451 50.7414 37.4935C50.7119 37.5372 50.6912 37.5527 50.7026 37.5429C50.7145 37.5327 50.75 37.5046 50.824 37.4599L49.7898 35.7481C49.5161 35.9134 49.2613 36.1113 49.0834 36.3749C48.8729 36.6869 48.8438 36.9799 48.8418 37.1589L50.8416 37.1817ZM51.2037 37.0962C50.6525 36.7686 50.7091 36.6223 50.7852 36.839L48.8982 37.5016C49.0198 37.8479 49.3523 38.3223 50.1817 38.8153L51.2037 37.0962ZM55.6202 38.007C53.3473 38.007 51.9232 37.5239 51.2037 37.0962L50.1817 38.8153C51.2862 39.4719 53.0873 40.007 55.6202 40.007V38.007ZM59.4339 36.8017C58.7124 37.4345 57.5462 38.007 55.6202 38.007V40.007C57.9812 40.007 59.6303 39.2898 60.7527 38.3052L59.4339 36.8017ZM59.6355 36.6124C59.5704 36.6778 59.5032 36.7409 59.4339 36.8017L60.7527 38.3052C60.8562 38.2145 60.9561 38.1207 61.0525 38.0238L59.6355 36.6124ZM13.0949 14.4766L9.4453 16.9097L10.5547 18.5738L14.2043 16.1407L13.0949 14.4766ZM12.6496 17.7418V42.0726H14.6496V17.7418H12.6496ZM33.001 18.5738L36.6506 16.1407L35.5412 14.4766L31.8916 16.9097L33.001 18.5738ZM73.8226 18.5705L77.4723 16.1374L76.3629 14.4733L72.7132 16.9064L73.8226 18.5705ZM90.2382 29.214L93.8878 26.7809L92.7784 25.1168L89.1288 27.5499L90.2382 29.214ZM101.187 18.5738L104.837 16.1407L103.727 14.4766L100.078 16.9097L101.187 18.5738ZM28.4227 26.571L34.9452 18.3639L33.3794 17.1196L26.857 25.3267L28.4227 26.571ZM78.7346 16.7418H76.3119V18.7418H78.7346V16.7418ZM75.3415 17.5005L71.0984 34.5704L73.0394 35.0529L77.2824 17.983L75.3415 17.5005ZM106.095 16.7418H103.633V18.7418H106.095V16.7418ZM102.667 17.4842L98.16 34.3918L100.093 34.9069L104.6 17.9993L102.667 17.4842ZM96.309 36.5282L91.5307 29.3518L89.8659 30.4602L94.6443 37.6366L96.309 36.5282ZM89.8659 29.3518L86.7076 34.0951L88.3724 35.2036L91.5307 30.4602L89.8659 29.3518ZM16.0502 45.3377L19.6998 42.9047L18.5904 41.2406L14.9408 43.6736L16.0502 45.3377ZM72.9137 44.9214L76.5633 42.4883L75.4539 40.8242L71.8042 43.2573L72.9137 44.9214ZM85.9803 45.3377L89.6299 42.9047L88.5205 41.2406L84.8709 43.6736L85.9803 45.3377ZM99.3051 45.3377L102.955 42.9047L101.845 41.2406L98.1957 43.6736L99.3051 45.3377ZM38.5392 45.3327L42.1833 42.8996L41.0727 41.2363L37.4287 43.6694L38.5392 45.3327ZM39.8721 42.4451C40.652 40.5162 41.7652 37.9051 43.1523 35.199L41.3725 34.2867C39.9476 37.0663 38.8094 39.7377 38.0179 41.6954L39.8721 42.4451ZM36.0968 43.0726L38.9458 43.0702L38.9441 41.0702L36.0951 41.0726L36.0968 43.0726ZM41.6289 43.0679L41.6344 43.0679L41.6328 41.0679L41.6272 41.0679L41.6289 43.0679ZM73.9511 41.8294L77.1999 28.7593L75.259 28.2769L72.0102 41.3469L73.9511 41.8294ZM71.1568 42.0384C71.6658 42.2928 72.2127 42.4773 72.8216 42.5754L73.1398 40.6009C72.7408 40.5366 72.3874 40.4176 72.051 40.2494L71.1568 42.0384ZM87.66 42.561L90.5561 37.3861L88.8109 36.4094L85.9147 41.5842L87.66 42.561ZM84.2662 43.0726H86.7873V41.0726H84.2662V43.0726ZM100.382 42.3372L107.059 18.0064L105.13 17.4771L98.4537 41.808L100.382 42.3372ZM97.591 43.0726H99.4181V41.0726H97.591V43.0726ZM16.4955 42.0726V25.7669H14.4955V42.0726H16.4955ZM13.6496 43.0726H15.4955V41.0726H13.6496V43.0726ZM24.5449 37.7298L28.1946 35.2967L27.0852 33.6326L23.4355 36.0657L24.5449 37.7298ZM27.5335 33.8868L33.2426 26.3719L31.65 25.162L25.9409 32.677L27.5335 33.8868ZM18.3502 23.9405L25.9423 33.8886L27.5321 32.6752L19.94 22.7272L18.3502 23.9405ZM28.4214 25.3249L27.5614 24.2478L25.9984 25.4956L26.8584 26.5728L28.4214 25.3249ZM31.6634 17.1196L25.997 24.2495L27.5628 25.4939L33.2292 18.3639L31.6634 17.1196ZM27.5614 24.2478L19.9266 14.6848L18.3636 15.9326L25.9984 25.4956L27.5614 24.2478ZM50.0001 29.0338L46.9214 31.0863L48.0308 32.7504L51.1095 30.6979L50.0001 29.0338ZM55.6203 29.2227C53.0397 29.2227 50.8051 29.5028 48.9562 30.1409L49.6086 32.0315C51.1731 31.4916 53.166 31.2227 55.6203 31.2227V29.2227ZM50.6086 28.6293C50.383 28.7656 50.1676 28.9093 49.9625 29.0601L51.1471 30.6715C51.3025 30.5573 51.4676 30.447 51.6428 30.3412L50.6086 28.6293ZM48.4972 30.467C47.4918 31.7421 47.0169 33.2462 47.0169 34.7847H49.0169C49.0169 33.6675 49.3573 32.6062 50.0677 31.7053L48.4972 30.467ZM49.7623 16.5533L47.1242 18.312L48.2336 19.9761L50.8717 18.2174L49.7623 16.5533ZM53.5019 16.4596C51.8774 16.5533 50.1888 16.9006 48.6189 17.5607L49.3941 19.4043C50.728 18.8435 52.1893 18.5387 53.6171 18.4563L53.5019 16.4596ZM47.174 18.2809C46.7914 18.5047 46.4199 18.7512 46.0633 19.0215L47.2715 20.6153C47.5617 20.3953 47.8666 20.1928 48.1837 20.0073L47.174 18.2809ZM48.3308 17.7454C45.2421 20.5768 42.6909 24.5823 40.7483 28.2143L42.5119 29.1576C44.4199 25.5902 46.8439 21.8216 49.6823 19.2196L48.3308 17.7454Z" fill="black" mask="url(#path-1-outside-1)"/>
<path d="M37.9844 45.001C38.1895 45.0009 38.3737 44.8754 38.449 44.6846C38.5097 44.531 38.5786 44.3548 38.6552 44.1589C39.3673 42.3376 40.7702 38.75 42.7074 34.9709C44.9114 30.6713 47.5539 26.6434 50.2766 24.5795C51.0798 23.9706 52.3714 23.5109 53.9034 23.4225C55.4283 23.3346 56.8581 23.6353 57.8519 24.1685C59.9628 25.3011 60.9702 26.7646 61.5929 28.2999C61.836 28.8992 61.9598 29.3558 61.9939 29.8794C62.0194 30.2706 61.9958 30.713 61.9201 31.2949C60.1599 30.3759 58.0735 29.7227 55.6203 29.7227C52.0869 29.7227 49.2616 30.2555 47.2175 31.4904C44.9419 32.8651 43.8673 34.9806 43.8673 37.2178C43.8673 39.8802 45.64 41.9025 47.6398 43.0913C49.7031 44.3179 52.4427 44.9814 55.6202 44.9814C59.0594 44.9814 61.9107 43.9064 64.0329 42.045C64.166 41.9283 64.2954 41.8091 64.4213 41.6877C65.1044 42.3269 65.9298 43.027 66.8327 43.5039L67.0662 43.0617L66.8327 43.5039C66.8821 43.53 66.9304 43.5589 67.0728 43.6477C67.0729 43.6477 67.0729 43.6478 67.073 43.6478L67.0926 43.6601L67.0927 43.6601L67.0954 43.6618C67.2186 43.7387 67.4564 43.8872 67.7307 44.0243C68.4576 44.3876 69.2566 44.5894 70.2188 44.5894H72.3589C72.5886 44.5894 72.7888 44.4329 72.8442 44.21L76.2534 30.4947L80.1344 44.638C80.194 44.8552 80.3914 45.0057 80.6166 45.0057H85.4256C85.6066 45.0057 85.7735 44.9079 85.8619 44.7499L89.6835 37.9216L93.5051 44.7499C93.5935 44.9079 93.7604 45.0057 93.9414 45.0057H98.7504C98.9756 45.0057 99.173 44.8552 99.2326 44.638L106.577 17.8741C106.618 17.7237 106.587 17.5626 106.492 17.4386C106.398 17.3146 106.251 17.2418 106.095 17.2418H100.632C100.406 17.2418 100.208 17.3941 100.149 17.613L95.2789 35.8832L90.0997 28.1049C90.007 27.9656 89.8508 27.882 89.6835 27.882C89.5162 27.882 89.36 27.9656 89.2673 28.1049L84.0882 35.8832L79.2178 17.613C79.1594 17.3941 78.9612 17.2418 78.7346 17.2418H73.3262C73.0797 17.2126 72.8441 17.3706 72.7827 17.6178L68.1434 36.2819C68.0522 36.1919 67.9575 36.0982 67.8593 36.001L67.857 35.9987L67.8564 35.9981L67.8551 35.9967C67.7982 35.9404 67.7401 35.883 67.6811 35.8246C67.7135 35.6834 67.7434 35.5422 67.7708 35.401C67.7708 35.401 67.7708 35.4009 67.7708 35.4009L67.8347 35.0717L67.8348 35.0716L67.8421 35.0339C68.487 31.7178 68.9663 29.2533 67.5926 25.8664C66.5044 23.1836 64.5769 20.4293 60.9129 18.4634L60.6765 18.904L60.9129 18.4634C58.6742 17.2623 56.0099 16.8159 53.5307 16.9588C51.0589 17.1014 48.4358 17.8505 46.3654 19.42C43.2226 21.8024 40.5694 25.5446 38.4805 29.1842V17.7418C38.4805 17.4656 38.2566 17.2418 37.9805 17.2418H32.4463C32.2938 17.2418 32.1497 17.3113 32.0549 17.4307L23.9893 27.5795L15.8862 17.4298C15.7913 17.311 15.6475 17.2418 15.4955 17.2418H10C9.72386 17.2418 9.5 17.4656 9.5 17.7418V44.5057C9.5 44.7819 9.72386 45.0057 10 45.0057H15.4955C15.7716 45.0057 15.9955 44.7819 15.9955 44.5057V27.2463L23.5928 37.2011C23.6875 37.3252 23.8347 37.3979 23.9908 37.3978C24.1469 37.3976 24.2939 37.3245 24.3884 37.2002L31.9463 27.2517V44.5057C31.9463 44.6384 31.999 44.7656 32.0929 44.8594C32.1868 44.9532 32.314 45.0058 32.4467 45.0057L37.9844 45.001ZM55.6203 36.1971C57.0695 36.1971 58.3285 36.6374 59.5224 37.3751C58.6964 38.0061 57.466 38.507 55.6202 38.507C53.2823 38.507 51.7639 38.0109 50.9482 37.526C50.6711 37.3613 50.5096 37.2246 50.4181 37.1305C50.4532 37.1038 50.501 37.0709 50.5654 37.032C51.1319 36.6898 52.5644 36.1971 55.6203 36.1971ZM50.3076 36.9901C50.3076 36.9901 50.3081 36.9911 50.309 36.993C50.308 36.9911 50.3076 36.9901 50.3076 36.9901Z" fill="#7E81CC" stroke="black" stroke-linejoin="round"/>
<path d="M37.9805 17.4331L41.6301 15" stroke="black" stroke-width="1.25"/>
<path d="M78.7346 17.4331L82.3842 15" stroke="black" stroke-width="1.25"/>
<path d="M106.35 17.4331L110 15" stroke="black" stroke-width="1.25"/>
<path d="M15.3525 17.4331L19.0022 15" stroke="black" stroke-width="1.25"/>
</svg>
