<svg width="60" height="60" viewBox="0 0 60 60" fill="none" xmlns="http://www.w3.org/2000/svg">
<path d="M19.3953 6.98582C19.3841 6.98506 19.3728 6.98468 19.3614 6.98468H19.3559H10.7323C10.7303 6.98468 10.7284 6.98468 10.7265 6.9847C10.6311 6.98564 10.5363 7.01382 10.454 7.06866L19.3953 6.98582ZM19.3953 6.98582C19.4413 6.98892 19.4858 6.9983 19.528 7.01322C19.6021 7.03935 19.6707 7.08315 19.727 7.14355M19.3953 6.98582L19.727 7.14355M19.727 7.14355C19.737 7.15431 19.7466 7.16553 19.7557 7.17719M19.727 7.14355L19.7557 7.17719M19.7557 7.17719L31.7418 22.1905C31.8873 22.3726 31.8875 22.6311 31.7425 22.8135L27.3616 28.326C27.2669 28.4452 27.123 28.5147 26.9708 28.5149C26.8185 28.515 26.6745 28.4458 26.5795 28.3268L13.3894 11.8056H10.7314L19.7557 7.17719ZM19.6322 49.935C19.6416 49.929 19.6507 49.9226 19.6596 49.916C19.6966 49.8885 19.7291 49.8565 19.7565 49.8211C19.8153 49.7453 19.851 49.6541 19.8595 49.5589C19.861 49.5422 19.8616 49.5253 19.8614 49.5083M19.6322 49.935L19.84 49.3697C19.8538 49.4156 19.8608 49.4622 19.8614 49.5083M19.6322 49.935L13.9074 53.7516C13.754 53.8538 13.5567 53.8634 13.3941 53.7764C13.2316 53.6894 13.1301 53.5199 13.1301 53.3355V49.5146M19.6322 49.935L13.1301 49.5146M19.8614 49.5083V31.4181C19.8614 31.3085 19.8254 31.2019 19.7589 31.1148L14.0275 23.6049C13.8974 23.4345 13.6731 23.3659 13.47 23.4346C13.2668 23.5033 13.1301 23.6938 13.1301 23.9083V49.5146M19.8614 49.5083L13.1301 49.5146M33.0917 37.8798C33.0599 37.9195 33.022 37.9544 32.9789 37.9832L33.0917 37.8798ZM33.0917 37.8798C33.0946 37.8762 33.0975 37.8725 33.1003 37.8688L40.6477 27.9341C40.7138 27.8471 40.7496 27.7408 40.7496 27.6316V23.9083C40.7496 23.6936 40.6126 23.5029 40.4091 23.4344C40.2057 23.3659 39.9813 23.4349 39.8514 23.6058L30.8859 35.4072L26.5721 41.0856C26.4244 41.28 26.4387 41.5526 26.6059 41.7305C26.7731 41.9084 27.0444 41.9395 27.2475 41.8041L32.9776 37.984L33.0917 37.8798ZM54.6709 6.98468H45.9844H45.9809C45.8841 6.98468 45.7907 7.01272 45.7111 7.06374C45.7086 7.06536 45.7061 7.06699 45.7036 7.06866L54.6709 6.98468ZM42.9443 11.8056H48.4405L48.4454 49.5122C48.4454 49.6449 48.4981 49.7721 48.592 49.8658C48.6859 49.9596 48.8131 50.0122 48.9458 50.0121L49.7148 50.0115C49.3577 50.904 49.0527 51.6841 48.803 52.3229C48.6825 52.631 48.5751 52.9056 48.4808 53.1446C48.4005 53.348 48.4617 53.5799 48.6319 53.7173C48.802 53.8546 49.0417 53.8654 49.2235 53.744L54.9396 49.9275C54.9488 49.9216 54.9577 49.9153 54.9665 49.9088C55.0037 49.8812 55.0363 49.849 55.0638 49.8135C55.1224 49.7378 55.158 49.6469 55.1665 49.5519C55.1681 49.5351 55.1687 49.5181 55.1685 49.501C55.1679 49.4547 55.1609 49.408 55.1469 49.362C55.083 49.1513 54.8887 49.0073 54.6685 49.0073L42.9443 11.8056ZM55.1718 7.49095V7.48472C55.1718 7.45884 55.1698 7.43326 55.1659 7.40816C55.1702 7.43578 55.1721 7.46347 55.1718 7.49095Z" fill="#453E93" stroke="black" stroke-linejoin="round"/>
<path d="M48.9463 53.8283C49.2223 53.828 49.446 53.6042 49.4459 53.3281L49.4404 32.3133V32.3132V11.3057C49.4404 11.0295 49.2165 10.8057 48.9404 10.8057H40.2496C40.0971 10.8057 39.953 10.8752 39.8581 10.9946L26.9693 27.2124L14.0208 10.9937C13.9259 10.8749 13.7821 10.8057 13.6301 10.8057H5C4.72386 10.8057 4.5 11.0295 4.5 11.3057V53.3356C4.5 53.6118 4.72386 53.8356 5 53.8356H13.6301C13.9062 53.8356 14.1301 53.6118 14.1301 53.3356V25.3877L26.5727 41.6915C26.6674 41.8155 26.8147 41.8883 26.9707 41.8881C27.1268 41.8879 27.2739 41.8149 27.3683 41.6906L39.7496 25.393V53.3356C39.7496 53.4683 39.8023 53.5955 39.8962 53.6893C39.99 53.7831 40.1173 53.8357 40.25 53.8356L48.9463 53.8283Z" fill="#7E81CC" stroke="black" stroke-linejoin="round"/>
<path d="M48.9404 10.8209L54.6718 7" stroke="black" stroke-width="1.25"/>
<path d="M13.406 10.8209L19.1374 7" stroke="black" stroke-width="1.25"/>
</svg>
